<svg xmlns="http://www.w3.org/2000/svg" xmlns:xlink="http://www.w3.org/1999/xlink" width="19.996" height="14.516" viewBox="0 0 19.996 14.516">
  <defs>
    <clipPath id="clip-path">
      <rect id="Rectangle_155" data-name="Rectangle 155" width="19.996" height="14.516" transform="translate(0 0)" fill="none"/>
    </clipPath>
  </defs>
  <g id="Group_123" data-name="Group 123" transform="translate(0 0)">
    <g id="Group_122" data-name="Group 122" transform="translate(0 0)" clip-path="url(#clip-path)">
      <path id="Path_52" data-name="Path 52" d="M19.683,7.318,8.485.093a.646.646,0,0,0-.979.554V6.365a.647.647,0,0,1-.646.646H.646A.646.646,0,0,0,0,7.657V13.87a.646.646,0,0,0,.646.646H6.859a.646.646,0,0,0,.646-.646V8.154A.646.646,0,0,1,8.485,7.6l10.532,6.824A.646.646,0,0,0,20,13.869v-6a.646.646,0,0,0-.313-.554" transform="translate(0 0)"  fill="#ff1800"/>
      <path id="Path_53" data-name="Path 53" d="M1.087,2.175A1.087,1.087,0,1,1,2.174,1.087,1.088,1.088,0,0,1,1.087,2.175m0-2.036a.948.948,0,1,0,.948.948A.949.949,0,0,0,1.087.139" transform="translate(0 0)" fill="#d8d8d8"/>
      <path id="Path_54" data-name="Path 54" d="M3.809,2.937H3.95l0,.031a.39.39,0,0,1-.123.261.4.4,0,0,1-.274.091.382.382,0,0,1-.213-.06.4.4,0,0,1-.143-.17.6.6,0,0,1-.05-.245V2.713a.586.586,0,0,1,.05-.249.382.382,0,0,1,.144-.171.4.4,0,0,1,.218-.06.386.386,0,0,1,.273.094.4.4,0,0,1,.117.259l0,.03H3.809l0-.025a.228.228,0,0,0-.25-.231.233.233,0,0,0-.2.091.415.415,0,0,0-.075.265V2.84a.421.421,0,0,0,.073.26.226.226,0,0,0,.191.093.258.258,0,0,0,.181-.056.283.283,0,0,0,.075-.175Z" transform="translate(-2.459 -1.747)" fill="#d8d8d8"/>
    </g>
  </g>
</svg>
