<svg viewBox="0 0 10.27 9.9">
    <path
        d="M406.86,627.29a.73.73,0,1,1,0-1.45h0a.72.72,0,0,1,.74.73.74.74,0,0,1-.76.72m-3.39,5.6a3.12,3.12,0,0,1-3.18-3.11,3.17,3.17,0,0,1,3.24-3.09,3.13,3.13,0,0,1,3.19,3.1,3.2,3.2,0,0,1-3.25,3.1m5.1-6a2.06,2.06,0,0,0-1.88-1.92,29.15,29.15,0,0,0-3.13-.12c-1.26,0-2.5,0-3,.09a2.13,2.13,0,0,0-2,1.82,39.12,39.12,0,0,0,0,6.11,2,2,0,0,0,1.55,1.7,18.83,18.83,0,0,0,3.37.19c1.31,0,2.6,0,3.09-.09a2.11,2.11,0,0,0,2-1.84,42.19,42.19,0,0,0,.08-5.94"
        transform="translate(-398.37 -624.83)" fill="#ff1700" />
    <path
        d="M405.58,629.8a2.07,2.07,0,0,1-2.1,2h0a2,2,0,0,1-2-2,2.06,2.06,0,0,1,2.1-2h0a2,2,0,0,1,2.05,2"
        transform="translate(-398.37 -624.83)" fill="#ff1700" />
</svg>