<svg viewBox="0 0 11.44 11.05">
    <path
        d="M417.66,623.68A1.35,1.35,0,0,1,419,625a1.37,1.37,0,0,1-1.39,1.33,1.34,1.34,0,0,1-1.37-1.33,1.37,1.37,0,0,1,1.39-1.33"
        transform="translate(-416.27 -623.68)" fill="#ff1700" />
    <polygon points="0.17 3.67 0.12 11.05 2.5 11.05 2.55 3.67 0.17 3.67" fill="#ff1700" />
    <path
        d="M424.88,627.17c2.41,0,2.85,1.52,2.83,3.51l0,4.06H425.3l0-3.59c0-.86,0-2-1.22-2s-1.44.94-1.45,1.9l0,3.66h-2.39l.06-7.39h2.28v1h0a2.53,2.53,0,0,1,2.26-1.19"
        transform="translate(-416.27 -623.68)" fill="#ff1700" />
</svg>