<?xml version="1.0" standalone="no"?>
<!DOCTYPE svg PUBLIC "-//W3C//DTD SVG 20010904//EN"
 "http://www.w3.org/TR/2001/REC-SVG-20010904/DTD/svg10.dtd">
<svg version="1.0" xmlns="http://www.w3.org/2000/svg"
 width="1280.000000pt" height="1280.000000pt" viewBox="0 0 1280.000000 1280.000000"
 preserveAspectRatio="xMidYMid meet">
<metadata>
Created by potrace 1.14, written by Peter Selinger 2001-2017
</metadata>
<g transform="translate(0.000000,1280.000000) scale(0.100000,-0.100000)"
fill="#000000" stroke="none">
<path d="M5105 11026 c-129 -41 -227 -131 -277 -253 l-23 -58 -5 -1925 -5
-1925 -31 -65 c-50 -105 -118 -170 -224 -216 -44 -18 -102 -19 -2125 -24
l-2080 -5 -60 -24 c-118 -47 -190 -114 -242 -227 l-28 -59 -3 -2070 c-2 -2049
-2 -2071 18 -2136 38 -125 144 -231 269 -269 65 -20 87 -20 2137 -18 l2070 3
76 38 c123 60 202 165 227 301 8 42 11 619 11 1928 0 1862 0 1869 21 1930 38
114 106 188 219 242 60 29 73 31 170 31 86 0 113 -4 152 -22 25 -11 354 -220
730 -464 375 -243 888 -575 1138 -737 250 -162 682 -442 960 -622 278 -180
795 -515 1150 -745 355 -230 834 -540 1065 -690 639 -413 1483 -961 1641
-1063 163 -107 227 -132 330 -132 182 0 339 109 394 275 20 60 20 79 18 2075
l-3 2015 -27 57 c-33 71 -79 129 -127 161 -20 14 -828 535 -1796 1159 -968
624 -2586 1667 -3595 2319 -1392 898 -1851 1189 -1900 1206 -74 26 -181 29
-245 9z"/>
</g>
</svg>
